<?xml version="1.0" encoding="utf-8"?>
<!-- Generator: Adobe Illustrator 16.0.3, SVG Export Plug-In . SVG Version: 6.00 Build 0)  -->
<!DOCTYPE svg PUBLIC "-//W3C//DTD SVG 1.1//EN" "http://www.w3.org/Graphics/SVG/1.1/DTD/svg11.dtd">
<svg version="1.1" id="Layer_1" xmlns="http://www.w3.org/2000/svg" xmlns:xlink="http://www.w3.org/1999/xlink" x="0px" y="0px"
	 width="40px" height="40px" viewBox="0 0 40 40" enable-background="new 0 0 40 40" xml:space="preserve">
<g>
	<defs>
		<polygon id="SVGID_1_" points="-5.8,-4.667 42.533,-4.667 42.533,43.667 -5.8,43.667 -5.8,-4.667 		"/>
	</defs>
	<clipPath id="SVGID_2_">
		<use xlink:href="#SVGID_1_"  overflow="visible"/>
	</clipPath>
	<g clip-path="url(#SVGID_2_)">
		<defs>
			<polygon id="SVGID_3_" points="-5.8,43.667 42.533,43.667 42.533,-4.667 -5.8,-4.667 -5.8,43.667 			"/>
		</defs>
		<clipPath id="SVGID_4_">
			<use xlink:href="#SVGID_3_"  overflow="visible"/>
		</clipPath>
		<g clip-path="url(#SVGID_4_)">
			<defs>
				<polygon id="SVGID_5_" points="-5.447,43.502 42.34,43.502 42.34,-4.313 -5.447,-4.313 -5.447,43.502 				"/>
			</defs>
			<clipPath id="SVGID_6_">
				<use xlink:href="#SVGID_5_"  overflow="visible"/>
			</clipPath>
			<path clip-path="url(#SVGID_6_)" d="M31.539,10.53l-1.943,1.942c4.033,4.034,4.033,10.609,0,14.642l1.943,1.943
				C36.615,23.927,36.665,15.659,31.539,10.53L31.539,10.53z"/>
			<path clip-path="url(#SVGID_6_)" d="M25.765,23.279l1.94,1.943c2.938-2.89,2.986-7.671,0.1-10.609c-0.05-0.05-0.1-0.1-0.1-0.1
				l-1.94,1.942C27.656,18.349,27.656,21.387,25.765,23.279L25.765,23.279z"/>
			<polygon clip-path="url(#SVGID_6_)" points="0.626,12.92 0.626,26.268 10.283,26.268 22.777,36.529 22.777,2.66 10.283,12.92 
				0.626,12.92 			"/>
		</g>
	</g>
</g>
</svg>
