<?xml version="1.0" encoding="utf-8"?>
<!-- Generator: Adobe Illustrator 16.0.3, SVG Export Plug-In . SVG Version: 6.00 Build 0)  -->
<!DOCTYPE svg PUBLIC "-//W3C//DTD SVG 1.1//EN" "http://www.w3.org/Graphics/SVG/1.1/DTD/svg11.dtd">
<svg version="1.1" id="Layer_1" xmlns="http://www.w3.org/2000/svg" xmlns:xlink="http://www.w3.org/1999/xlink" x="0px" y="0px"
	 width="40px" height="40px" viewBox="0 0 40 40" enable-background="new 0 0 40 40" xml:space="preserve">
<g>
	<g>
		<defs>
			<rect id="SVGID_1_" x="-5.8" y="-4.667" width="48.333" height="48.334"/>
		</defs>
		<clipPath id="SVGID_2_">
			<use xlink:href="#SVGID_1_"  overflow="visible"/>
		</clipPath>
		<g clip-path="url(#SVGID_2_)">
			<g>
				<defs>
					<rect id="SVGID_3_" x="-5.8" y="-4.667" width="48.333" height="48.334"/>
				</defs>
				<clipPath id="SVGID_4_">
					<use xlink:href="#SVGID_3_"  overflow="visible"/>
				</clipPath>
				<g clip-path="url(#SVGID_4_)">
					<g>
						<defs>
							<rect id="SVGID_5_" x="-5.447" y="-4.313" width="47.787" height="47.815"/>
						</defs>
						<defs>
							<rect id="SVGID_6_" x="-5.447" y="-4.313" width="47.787" height="47.815"/>
						</defs>
						<defs>
							<rect id="SVGID_7_" x="-5.447" y="-4.313" width="47.787" height="47.815"/>
						</defs>
						<clipPath id="SVGID_8_">
							<use xlink:href="#SVGID_5_"  overflow="visible"/>
						</clipPath>
						<clipPath id="SVGID_9_" clip-path="url(#SVGID_8_)">
							<use xlink:href="#SVGID_6_"  overflow="visible"/>
						</clipPath>
						<clipPath id="SVGID_10_" clip-path="url(#SVGID_9_)">
							<use xlink:href="#SVGID_7_"  overflow="visible"/>
						</clipPath>
						<path clip-path="url(#SVGID_10_)" fill="#FFFFFF" d="M31.539,10.53l-1.943,1.942c4.033,4.034,4.033,10.609,0,14.642
							l1.943,1.942C36.615,23.927,36.665,15.659,31.539,10.53L31.539,10.53z"/>
						<path clip-path="url(#SVGID_10_)" fill="#FFFFFF" d="M25.766,23.279l1.939,1.943c2.938-2.891,2.986-7.672,0.1-10.61
							c-0.05-0.05-0.1-0.1-0.1-0.1l-1.939,1.942C27.656,18.349,27.656,21.387,25.766,23.279L25.766,23.279z"/>
						<polygon clip-path="url(#SVGID_10_)" fill="#FFFFFF" points="0.626,12.92 0.626,26.268 10.283,26.268 22.777,36.529 
							22.777,2.66 10.283,12.92 						"/>
					</g>
				</g>
			</g>
		</g>
	</g>
</g>
</svg>
